<?xml version="1.0" encoding="UTF-8" standalone="no"?>
<svg
   width="667.18213"
   height="220"
   viewBox="0 0 667.18213 220"
   fill="none"
   version="1.1"
   id="svg7"
   xmlns="http://www.w3.org/2000/svg"
   xmlns:svg="http://www.w3.org/2000/svg">
  <defs
     id="defs7" />
  <path
     d="m 18.26,177.54 c -4.4,0 -8.58,-1.173 -12.54,-3.52 C 1.907,171.673 0,168.667 0,165 c 0,-1.907 0.293,-3.96 0.88,-6.16 0.733,-2.2 1.393,-4.253 1.98,-6.16 4.547,-13.933 8.8,-26.913 12.76,-38.94 3.96,-12.173 7.92,-23.833 11.88,-34.98 4.107,-11.293 8.36,-22.587 12.76,-33.88 4.547,-11.293 9.607,-23.1 15.18,-35.42 -5.573,1.173 -10.34,2.713 -14.3,4.62 -3.96,1.76 -7.187,3.373 -9.68,4.84 -2.493,1.32 -4.327,1.98 -5.5,1.98 -0.733,0 -1.833,-0.513 -3.3,-1.54 -1.32,-1.027 -2.493,-2.2 -3.52,-3.52 C 18.113,14.52 17.6,13.347 17.6,12.32 21.707,10.56 26.473,8.727 31.9,6.82 37.473,4.913 43.487,3.3 49.94,1.98 56.393,0.66 62.847,0 69.3,0 c 6.893,0 13.933,0.953 21.12,2.86 7.187,1.76 13.787,4.473 19.8,8.14 6.16,3.52 11.073,7.993 14.74,13.42 3.813,5.28 5.72,11.513 5.72,18.7 0,7.773 -1.76,14.447 -5.28,20.02 -3.52,5.573 -8.213,10.267 -14.08,14.08 -5.72,3.813 -11.953,6.893 -18.7,9.24 -6.747,2.347 -13.493,4.107 -20.24,5.28 -6.6,1.173 -12.54,1.98 -17.82,2.42 -5.28,0.44 -9.24,0.66 -11.88,0.66 h -1.32 c -4.107,14.52 -8.14,29.04 -12.1,43.56 -3.96,14.373 -7.627,27.427 -11,39.16 z M 43.34,88 c 8.213,-0.587 16.427,-1.98 24.64,-4.18 8.213,-2.2 15.62,-5.207 22.22,-9.02 6.747,-3.96 12.1,-8.873 16.06,-14.74 4.107,-5.867 6.16,-12.687 6.16,-20.46 0,-7.333 -1.98,-13.273 -5.94,-17.82 C 102.667,17.233 97.68,13.787 91.52,11.44 85.507,9.093 79.127,7.847 72.38,7.7 67.1,17.967 62.04,30.14 57.2,44.22 52.36,58.153 47.74,72.747 43.34,88 Z"
     fill="#ffffff"
     id="path1" />
  <path
     d="m 128.069,165 c -6.453,0 -11.293,-1.907 -14.52,-5.72 -3.226,-3.813 -4.84,-8.433 -4.84,-13.86 0,-3.373 0.587,-7.627 1.76,-12.76 1.174,-5.133 2.787,-10.487 4.84,-16.06 2.2,-5.72 4.694,-11.073 7.48,-16.06 2.787,-4.987 5.794,-9.02 9.02,-12.1 3.227,-3.227 6.454,-4.84 9.68,-4.84 1.76,0 3.3,0.587 4.62,1.76 1.32,1.027 1.98,2.567 1.98,4.62 0,1.907 -1.173,4.767 -3.52,8.58 -2.2,3.813 -4.84,8.213 -7.92,13.2 -2.933,4.987 -5.573,10.193 -7.92,15.62 -2.2,5.28 -3.3,10.34 -3.3,15.18 0,4.693 0.807,7.847 2.42,9.46 1.76,1.467 4.254,2.2 7.48,2.2 4.987,0 10.414,-2.493 16.28,-7.48 5.867,-4.987 11.954,-13.713 18.26,-26.18 l 3.3,3.52 c -5.133,12.907 -11.66,22.953 -19.58,30.14 -7.92,7.187 -16.426,10.78 -25.52,10.78 z m 25.96,-99.22 c -2.786,0 -5.353,-0.66 -7.7,-1.98 -2.2,-1.467 -3.3,-3.667 -3.3,-6.6 0,-3.52 1.907,-6.527 5.72,-9.02 3.814,-2.493 7.774,-3.74 11.88,-3.74 2.64,0 4.84,0.587 6.6,1.76 1.907,1.173 2.86,3.3 2.86,6.38 0,3.08 -1.686,6.087 -5.06,9.02 -3.373,2.787 -7.04,4.18 -11,4.18 z"
     fill="#ffffff"
     id="path2" />
  <path
     d="m 238.32,162.8 c -5.72,0 -10.12,-1.467 -13.2,-4.4 -2.933,-2.787 -4.4,-6.38 -4.4,-10.78 0,-2.933 0.513,-6.013 1.54,-9.24 1.027,-3.373 2.053,-6.747 3.08,-10.12 1.027,-3.373 1.54,-6.6 1.54,-9.68 0,-3.227 -0.807,-5.427 -2.42,-6.6 -1.467,-1.32 -3.227,-1.98 -5.28,-1.98 -4.4,0 -8.947,1.833 -13.64,5.5 -4.547,3.52 -9.02,7.993 -13.42,13.42 -4.253,5.427 -8.287,11.073 -12.1,16.94 -3.813,5.867 -7.113,11.147 -9.9,15.84 -2.787,0 -5.427,-0.513 -7.92,-1.54 -2.493,-0.88 -4.62,-2.493 -6.38,-4.84 0.147,-0.733 1.027,-2.933 2.64,-6.6 1.467,-3.813 3.153,-8.287 5.06,-13.42 1.907,-5.28 3.593,-10.78 5.06,-16.5 1.467,-5.72 2.2,-10.927 2.2,-15.62 1.027,-1.173 2.567,-2.347 4.62,-3.52 2.2,-1.173 4.473,-1.76 6.82,-1.76 5.133,0 7.7,2.2 7.7,6.6 0,1.76 -0.367,4.4 -1.1,7.92 -0.587,3.373 -1.467,7.26 -2.64,11.66 3.813,-5.133 7.993,-9.973 12.54,-14.52 4.547,-4.547 9.24,-8.213 14.08,-11 4.987,-2.933 9.973,-4.4 14.96,-4.4 6.307,0 10.927,2.127 13.86,6.38 3.08,4.253 4.62,8.947 4.62,14.08 0,4.4 -0.733,8.507 -2.2,12.32 -1.467,3.813 -2.933,7.407 -4.4,10.78 -1.32,3.373 -1.98,6.673 -1.98,9.9 0,2.347 0.513,4.033 1.54,5.06 1.173,0.88 2.42,1.32 3.74,1.32 3.52,0 7.187,-1.687 11,-5.06 3.813,-3.373 7.407,-7.627 10.78,-12.76 3.52,-5.28 6.6,-10.56 9.24,-15.84 l 3.74,3.08 c -3.08,7.187 -6.6,13.787 -10.56,19.8 -3.813,5.867 -8.14,10.633 -12.98,14.3 -4.693,3.52 -9.973,5.28 -15.84,5.28 z"
     fill="#ffffff"
     id="path3" />
  <path
     d="m 337.905,166.76 c -4.547,0 -8.507,-1.467 -11.88,-4.4 -3.374,-2.933 -6.087,-6.6 -8.14,-11 -2.054,-4.4 -3.594,-8.873 -4.62,-13.42 -1.027,-4.693 -1.54,-8.727 -1.54,-12.1 2.053,-0.44 4.62,-1.1 7.7,-1.98 3.08,-0.88 6.233,-2.053 9.46,-3.52 3.226,-1.613 5.866,-3.52 7.92,-5.72 2.2,-2.347 3.3,-5.133 3.3,-8.36 0,-2.64 -0.88,-4.767 -2.64,-6.38 -1.614,-1.613 -3.96,-2.42 -7.04,-2.42 -4.107,0 -7.994,1.393 -11.66,4.18 -3.667,2.64 -7.114,6.16 -10.34,10.56 -3.08,4.4 -5.94,9.167 -8.58,14.3 -2.494,5.133 -4.767,10.12 -6.82,14.96 -1.907,4.84 -3.52,9.02 -4.84,12.54 -1.614,4.4 -3.154,7.333 -4.62,8.8 -1.467,1.613 -3.594,2.42 -6.38,2.42 -1.027,0 -2.274,-0.293 -3.74,-0.88 -1.32,-0.587 -2.494,-2.053 -3.52,-4.4 -0.88,-2.347 -1.32,-6.087 -1.32,-11.22 0,-8.947 1.246,-18.773 3.74,-29.48 2.493,-10.707 5.793,-21.56 9.9,-32.56 4.253,-11.147 8.873,-21.78 13.86,-31.9 4.986,-10.12 10.046,-19.213 15.18,-27.28 5.133,-8.067 9.9,-14.447 14.3,-19.14 4.546,-4.693 8.286,-7.04 11.22,-7.04 2.493,0 4.546,1.54 6.16,4.62 1.76,2.933 2.64,6.747 2.64,11.44 0,4.987 -1.1,10.56 -3.3,16.72 -2.2,6.013 -5.354,12.173 -9.46,18.48 -3.96,6.16 -8.727,12.027 -14.3,17.6 -5.574,5.573 -11.734,10.34 -18.48,14.3 -4.107,9.533 -7.26,18.993 -9.46,28.38 -2.2,9.24 -3.594,17.453 -4.18,24.64 2.64,-6.013 5.646,-12.173 9.02,-18.48 3.373,-6.307 7.113,-12.173 11.22,-17.6 4.106,-5.573 8.506,-10.047 13.2,-13.42 4.84,-3.373 9.973,-5.06 15.4,-5.06 5.866,0 11,2.053 15.4,6.16 4.4,4.107 6.6,9.24 6.6,15.4 0,4.4 -1.174,8.213 -3.52,11.44 -2.347,3.227 -5.28,5.94 -8.8,8.14 -3.374,2.053 -6.82,3.593 -10.34,4.62 -3.52,1.027 -6.527,1.613 -9.02,1.76 0.44,1.907 1.026,4.327 1.76,7.26 0.88,2.933 1.98,5.793 3.3,8.58 1.32,2.787 3.006,5.133 5.06,7.04 2.053,1.907 4.473,2.86 7.26,2.86 3.666,0 7.406,-1.687 11.22,-5.06 3.96,-3.373 7.773,-7.847 11.44,-13.42 3.813,-5.573 7.186,-11.733 10.12,-18.48 l 3.08,3.74 c -2.494,7.333 -5.94,14.373 -10.34,21.12 -4.254,6.747 -9.02,12.173 -14.3,16.28 -5.28,4.253 -10.707,6.38 -16.28,6.38 z m -31.46,-97.24 c 3.96,-3.52 8.14,-7.847 12.54,-12.98 4.4,-5.28 8.14,-10.853 11.22,-16.72 3.226,-6.013 4.913,-11.733 5.06,-17.16 0,-0.147 0,-0.22 0,-0.22 0,-0.147 0,-0.293 0,-0.44 -1.467,0.587 -3.814,3.153 -7.04,7.7 -3.08,4.4 -6.527,10.047 -10.34,16.94 -3.814,6.893 -7.627,14.52 -11.44,22.88 z"
     fill="#ffffff"
     id="path4" />
  <path
     d="m 382.106,168.74 c -4.84,0 -9.02,-1.613 -12.54,-4.84 -3.667,-3.227 -5.5,-8.067 -5.5,-14.52 0,-5.133 1.173,-10.707 3.52,-16.72 2.346,-6.013 5.573,-11.953 9.68,-17.82 4.106,-5.867 8.8,-11.147 14.08,-15.84 5.28,-4.84 10.926,-8.727 16.94,-11.66 6.013,-2.933 12.026,-4.4 18.04,-4.4 6.306,0 11.66,1.613 16.06,4.84 4.4,3.227 6.6,7.48 6.6,12.76 0,3.96 -1.394,6.82 -4.18,8.58 -2.787,1.76 -6.087,2.273 -9.9,1.54 0.293,-1.32 0.513,-2.64 0.66,-3.96 0.293,-1.32 0.44,-2.713 0.44,-4.18 0,-2.933 -0.587,-5.573 -1.76,-7.92 -1.174,-2.347 -3.667,-3.52 -7.48,-3.52 -4.107,0 -8.287,1.393 -12.54,4.18 -4.254,2.787 -8.36,6.453 -12.32,11 -3.814,4.4 -7.26,9.313 -10.34,14.74 -3.08,5.28 -5.5,10.487 -7.26,15.62 -1.76,5.133 -2.64,9.753 -2.64,13.86 0,4.693 1.686,7.04 5.06,7.04 3.373,0 7.113,-1.613 11.22,-4.84 4.106,-3.373 8.213,-7.553 12.32,-12.54 4.253,-4.987 8.286,-10.047 12.1,-15.18 3.813,-5.28 7.113,-9.753 9.9,-13.42 0.44,-0.733 1.026,-1.1 1.76,-1.1 0.586,0.147 1.686,0.513 3.3,1.1 1.76,0.44 3.373,1.173 4.84,2.2 1.466,1.027 2.2,2.347 2.2,3.96 0,1.467 -0.66,3.373 -1.98,5.72 -1.174,2.2 -2.64,4.693 -4.4,7.48 -1.614,2.64 -3.08,5.353 -4.4,8.14 -1.174,2.64 -1.76,5.207 -1.76,7.7 0,1.907 0.513,3.74 1.54,5.5 1.026,1.613 2.713,2.42 5.06,2.42 3.52,0 8.433,-2.567 14.74,-7.7 6.453,-5.28 12.98,-14.153 19.58,-26.62 l 4.18,4.18 c -3.52,7.92 -7.774,14.96 -12.76,21.12 -4.84,6.013 -9.974,10.707 -15.4,14.08 -5.427,3.52 -10.927,5.28 -16.5,5.28 -6.014,0 -10.487,-1.907 -13.42,-5.72 -2.934,-3.813 -4.547,-7.92 -4.84,-12.32 0,-0.293 0,-0.513 0,-0.66 0,-0.147 0,-0.293 0,-0.44 -5.867,7.04 -11.294,12.613 -16.28,16.72 -4.84,4.107 -10.047,6.16 -15.62,6.16 z"
     fill="#ffffff"
     id="path5" />
  <path
     d="m 508.24,164.12 c -5.427,0 -9.827,-1.467 -13.2,-4.4 -3.374,-2.787 -5.06,-6.6 -5.06,-11.44 0,-4.107 1.026,-8.507 3.08,-13.2 2.053,-4.693 4.106,-9.313 6.16,-13.86 2.2,-4.547 3.3,-8.58 3.3,-12.1 0,-3.373 -1.1,-6.16 -3.3,-8.36 -2.2,-2.347 -4.767,-4.253 -7.7,-5.72 -3.227,8.067 -6.894,15.913 -11,23.54 -3.96,7.48 -7.187,13.347 -9.68,17.6 l -3.3,-6.38 c 2.053,-3.813 4.766,-9.24 8.14,-16.28 3.373,-7.04 6.6,-14.887 9.68,-23.54 -1.467,-1.467 -2.2,-3.447 -2.2,-5.94 0,-3.813 1.173,-7.407 3.52,-10.78 2.346,-3.373 4.62,-5.06 6.82,-5.06 1.76,0 3.006,1.027 3.74,3.08 0.88,1.907 1.32,3.227 1.32,3.96 0,0.733 -0.367,2.053 -1.1,3.96 -0.587,1.907 -1.027,3.3 -1.32,4.18 0.146,1.613 1.393,3.227 3.74,4.84 2.493,1.467 5.28,3.227 8.36,5.28 3.08,2.053 5.793,4.62 8.14,7.7 2.346,3.08 3.52,6.967 3.52,11.66 0,4.253 -0.954,8.58 -2.86,12.98 -1.907,4.4 -3.814,8.507 -5.72,12.32 -1.907,3.813 -2.86,7.113 -2.86,9.9 0,2.053 0.513,3.447 1.54,4.18 1.173,0.587 2.493,0.88 3.96,0.88 3.52,0 7.186,-1.027 11,-3.08 3.813,-2.2 7.553,-4.987 11.22,-8.36 3.67,-3.373 6.89,-6.893 9.68,-10.56 2.79,-3.813 4.91,-7.26 6.38,-10.34 l 5.28,3.96 c -2.79,6.307 -6.82,12.54 -12.1,18.7 -5.28,6.013 -11.15,11 -17.6,14.96 -6.454,3.813 -12.98,5.72 -19.58,5.72 z"
     fill="#ffffff"
     id="path6" />
  <path
     d="m 558.02,220 c -3.67,0 -7.11,-1.173 -10.34,-3.52 -3.08,-2.2 -4.62,-5.793 -4.62,-10.78 0,-4.693 1.39,-8.947 4.18,-12.76 2.79,-3.667 6.38,-7.113 10.78,-10.34 4.4,-3.08 9.09,-5.94 14.08,-8.58 5.13,-2.493 10.05,-4.84 14.74,-7.04 1.61,-4.253 3.37,-9.607 5.28,-16.06 2.05,-6.6 3.81,-12.687 5.28,-18.26 -4.55,6.307 -9.39,11.88 -14.52,16.72 -5.13,4.84 -10.85,7.26 -17.16,7.26 -2.64,0 -5.43,-0.513 -8.36,-1.54 -2.93,-1.173 -5.43,-3.08 -7.48,-5.72 -1.91,-2.787 -2.86,-6.453 -2.86,-11 0,-3.813 0.66,-8.433 1.98,-13.86 1.47,-5.427 3.23,-10.707 5.28,-15.84 2.2,-5.28 4.47,-9.607 6.82,-12.98 2.35,-3.52 4.4,-5.28 6.16,-5.28 0.88,0 2.13,0.367 3.74,1.1 1.76,0.587 3.45,1.467 5.06,2.64 1.61,1.027 2.64,2.2 3.08,3.52 -1.32,1.76 -2.79,4.327 -4.4,7.7 -1.61,3.227 -3.15,6.893 -4.62,11 -1.47,3.96 -2.71,7.847 -3.74,11.66 -0.88,3.813 -1.32,7.113 -1.32,9.9 0,2.2 0.44,4.107 1.32,5.72 0.88,1.613 2.57,2.42 5.06,2.42 3.23,0 6.53,-1.32 9.9,-3.96 3.52,-2.64 6.89,-6.013 10.12,-10.12 3.37,-4.107 6.38,-8.287 9.02,-12.54 0.29,-1.027 0.59,-2.64 0.88,-4.84 0.29,-2.2 0.81,-4.473 1.54,-6.82 0.73,-2.493 1.98,-4.767 3.74,-6.82 1.91,-2.053 4.55,-3.08 7.92,-3.08 1.17,0 2.27,0.073 3.3,0.22 1.03,0.147 2.27,0.367 3.74,0.66 0,2.2 -0.81,6.527 -2.42,12.98 -1.47,6.307 -3.45,13.64 -5.94,22 -2.49,8.36 -5.28,16.72 -8.36,25.08 6.16,-2.493 12.54,-6.6 19.14,-12.32 6.75,-5.867 12.17,-14.153 16.28,-24.86 l 3.74,3.08 c -2.2,7.333 -5.57,13.713 -10.12,19.14 -4.4,5.427 -9.39,10.047 -14.96,13.86 -5.57,3.813 -11.22,6.967 -16.94,9.46 -3.96,9.533 -8.29,18.333 -12.98,26.4 -4.55,8.067 -9.39,14.447 -14.52,19.14 -5.13,4.84 -10.63,7.26 -16.5,7.26 z m -2.2,-8.14 c 2.79,0 6.67,-2.933 11.66,-8.8 4.99,-5.867 10.05,-14.667 15.18,-26.4 -4.69,2.347 -9.46,5.06 -14.3,8.14 -4.69,3.227 -8.65,6.6 -11.88,10.12 -3.23,3.52 -4.84,7.113 -4.84,10.78 0,1.467 0.29,2.86 0.88,4.18 0.73,1.32 1.83,1.98 3.3,1.98 z"
     fill="#ffffff"
     id="path7" />
  <circle
     cx="654.95996"
     cy="99.734009"
     r="12.2222"
     fill="#ec4899"
     id="circle7" />
</svg>
